<svg width="754" height="148" viewBox="0 0 754 148" fill="none" xmlns="http://www.w3.org/2000/svg">
<rect width="754" height="148" fill="black"/>
<path d="M71.728 73.528H67.648C66.976 73.528 66.64 73.208 66.64 72.568V43.528C66.64 42.856 66.976 42.52 67.648 42.52H71.728C72.4 42.52 72.736 42.856 72.736 43.528V45.112H72.928C73.28 44.248 73.904 43.608 74.8 43.192C75.696 42.744 76.64 42.52 77.632 42.52H79.6C82.064 42.52 83.92 43.192 85.168 44.536C86.448 45.88 87.088 47.816 87.088 50.344V59.176C87.088 61.704 86.448 63.64 85.168 64.984C83.92 66.328 82.064 67 79.6 67H77.632C76.64 67 75.696 66.792 74.8 66.376C73.904 65.928 73.28 65.272 72.928 64.408H72.736V72.568C72.736 73.208 72.4 73.528 71.728 73.528ZM76.048 61.72H78.16C79.184 61.72 79.904 61.512 80.32 61.096C80.768 60.648 80.992 59.912 80.992 58.888V50.632C80.992 49.608 80.768 48.888 80.32 48.472C79.904 48.024 79.184 47.8 78.16 47.8H76.048C73.84 47.8 72.736 49.016 72.736 51.448V58.072C72.736 60.504 73.84 61.72 76.048 61.72ZM96.9936 67H92.9136C92.2416 67 91.9056 66.664 91.9056 65.992V43.528C91.9056 42.856 92.2416 42.52 92.9136 42.52H96.9936C97.6656 42.52 98.0016 42.856 98.0016 43.528V45.16H98.1936C98.5456 44.296 99.1696 43.64 100.066 43.192C100.962 42.744 101.906 42.52 102.898 42.52H104.626C105.266 42.52 105.586 42.856 105.586 43.528V46.84C105.586 47.224 105.506 47.496 105.346 47.656C105.218 47.784 104.978 47.832 104.626 47.8H101.314C99.1056 47.8 98.0016 49.048 98.0016 51.544V65.992C98.0016 66.664 97.6656 67 96.9936 67ZM120.352 67H116.08C113.552 67 111.6 66.328 110.224 64.984C108.848 63.64 108.16 61.704 108.16 59.176V50.344C108.16 47.816 108.848 45.88 110.224 44.536C111.6 43.192 113.552 42.52 116.08 42.52H120.352C122.848 42.52 124.784 43.208 126.16 44.584C127.568 45.928 128.272 47.848 128.272 50.344V59.176C128.272 61.672 127.568 63.608 126.16 64.984C124.784 66.328 122.848 67 120.352 67ZM116.992 61.768H119.44C120.464 61.768 121.184 61.56 121.6 61.144C122.048 60.728 122.272 60.008 122.272 58.984V50.536C122.272 49.512 122.048 48.792 121.6 48.376C121.184 47.96 120.464 47.752 119.44 47.752H116.992C115.968 47.752 115.248 47.96 114.832 48.376C114.416 48.792 114.208 49.512 114.208 50.536V58.984C114.208 60.008 114.416 60.728 114.832 61.144C115.248 61.56 115.968 61.768 116.992 61.768ZM142.038 67H140.07C137.606 67 135.734 66.328 134.454 64.984C133.206 63.64 132.582 61.704 132.582 59.176V50.344C132.582 47.816 133.206 45.88 134.454 44.536C135.734 43.192 137.606 42.52 140.07 42.52H142.038C143.03 42.52 143.974 42.744 144.87 43.192C145.766 43.608 146.39 44.248 146.742 45.112H146.934V34.264C146.934 33.592 147.27 33.256 147.942 33.256H152.022C152.694 33.256 153.03 33.592 153.03 34.264V65.992C153.03 66.664 152.694 67 152.022 67H147.942C147.27 67 146.934 66.664 146.934 65.992V64.408H146.742C146.39 65.272 145.766 65.928 144.87 66.376C143.974 66.792 143.03 67 142.038 67ZM146.934 58.072V51.448C146.934 49.016 145.83 47.8 143.622 47.8H141.462C140.438 47.8 139.718 48.024 139.302 48.472C138.886 48.888 138.678 49.608 138.678 50.632V58.888C138.678 59.912 138.886 60.648 139.302 61.096C139.718 61.512 140.438 61.72 141.462 61.72H143.622C145.83 61.72 146.934 60.504 146.934 58.072ZM167.16 67H165.576C163.112 67 161.24 66.328 159.96 64.984C158.712 63.64 158.088 61.704 158.088 59.176V43.528C158.088 42.856 158.424 42.52 159.096 42.52H163.176C163.848 42.52 164.184 42.856 164.184 43.528V58.888C164.184 59.912 164.392 60.648 164.808 61.096C165.256 61.512 165.976 61.72 166.968 61.72H168.744C170.952 61.72 172.056 60.504 172.056 58.072V43.528C172.056 42.856 172.392 42.52 173.064 42.52H177.096C177.8 42.52 178.152 42.856 178.152 43.528V65.992C178.152 66.664 177.8 67 177.096 67H173.064C172.392 67 172.056 66.664 172.056 65.992V64.408H171.864C171.512 65.272 170.888 65.928 169.992 66.376C169.096 66.792 168.152 67 167.16 67ZM199.053 62.728V66.04C199.053 66.392 198.973 66.648 198.813 66.808C198.685 66.936 198.429 67 198.045 67H190.893C188.365 67 186.413 66.328 185.037 64.984C183.661 63.64 182.973 61.704 182.973 59.176V50.344C182.973 47.816 183.661 45.88 185.037 44.536C186.413 43.192 188.365 42.52 190.893 42.52H198.045C198.717 42.52 199.053 42.856 199.053 43.528V46.84C199.053 47.192 198.973 47.448 198.813 47.608C198.685 47.736 198.429 47.8 198.045 47.8H191.853C190.861 47.8 190.141 48.024 189.693 48.472C189.277 48.888 189.069 49.608 189.069 50.632V58.888C189.069 59.912 189.277 60.648 189.693 61.096C190.141 61.512 190.861 61.72 191.853 61.72H198.045C198.717 61.72 199.053 62.056 199.053 62.728ZM203.715 47.8H201.795C201.411 47.8 201.139 47.736 200.979 47.608C200.851 47.48 200.787 47.224 200.787 46.84V43.528C200.787 42.856 201.123 42.52 201.795 42.52H203.715C204.067 42.52 204.243 42.344 204.243 41.992V37.432C204.243 36.76 204.595 36.424 205.299 36.424H209.331C210.003 36.424 210.339 36.76 210.339 37.432V41.992C210.339 42.344 210.531 42.52 210.915 42.52H214.659C215.331 42.52 215.667 42.856 215.667 43.528V46.84C215.667 47.192 215.587 47.448 215.427 47.608C215.299 47.736 215.043 47.8 214.659 47.8H210.915C210.531 47.8 210.339 47.976 210.339 48.328V58.936C210.339 59.928 210.563 60.648 211.011 61.096C211.459 61.512 212.195 61.72 213.219 61.72H215.139C215.811 61.72 216.147 62.056 216.147 62.728V66.04C216.147 66.392 216.067 66.648 215.907 66.808C215.779 66.936 215.523 67 215.139 67H212.211C209.683 67 207.715 66.328 206.307 64.984C204.931 63.64 204.243 61.72 204.243 59.224V48.328C204.243 47.976 204.067 47.8 203.715 47.8ZM220.349 38.392V34.216C220.349 33.576 220.669 33.256 221.309 33.256H225.485C226.125 33.256 226.445 33.56 226.445 34.168V38.392C226.445 39.032 226.125 39.352 225.485 39.352H221.309C220.669 39.352 220.349 39.032 220.349 38.392ZM220.349 65.992V43.528C220.349 42.856 220.669 42.52 221.309 42.52H225.437C226.109 42.52 226.445 42.856 226.445 43.528V65.992C226.445 66.408 226.365 66.68 226.205 66.808C226.077 66.936 225.837 67 225.485 67H221.357C220.685 67 220.349 66.664 220.349 65.992ZM243.68 67H239.408C236.88 67 234.928 66.328 233.552 64.984C232.176 63.64 231.488 61.704 231.488 59.176V50.344C231.488 47.816 232.176 45.88 233.552 44.536C234.928 43.192 236.88 42.52 239.408 42.52H243.68C246.176 42.52 248.112 43.208 249.488 44.584C250.896 45.928 251.6 47.848 251.6 50.344V59.176C251.6 61.672 250.896 63.608 249.488 64.984C248.112 66.328 246.176 67 243.68 67ZM240.32 61.768H242.768C243.792 61.768 244.512 61.56 244.928 61.144C245.376 60.728 245.6 60.008 245.6 58.984V50.536C245.6 49.512 245.376 48.792 244.928 48.376C244.512 47.96 243.792 47.752 242.768 47.752H240.32C239.296 47.752 238.576 47.96 238.16 48.376C237.744 48.792 237.536 49.512 237.536 50.536V58.984C237.536 60.008 237.744 60.728 238.16 61.144C238.576 61.56 239.296 61.768 240.32 61.768ZM261.478 67H257.398C256.726 67 256.39 66.664 256.39 65.992V43.528C256.39 42.856 256.726 42.52 257.398 42.52H261.478C262.15 42.52 262.486 42.856 262.486 43.528V45.112H262.678C263.382 43.384 264.95 42.52 267.382 42.52H268.918C273.942 42.52 276.454 45.128 276.454 50.344V65.992C276.454 66.664 276.102 67 275.398 67H271.366C270.694 67 270.358 66.664 270.358 65.992V50.632C270.358 49.608 270.134 48.888 269.686 48.472C269.27 48.024 268.55 47.8 267.526 47.8H265.798C263.59 47.8 262.486 49.016 262.486 51.448V65.992C262.486 66.664 262.15 67 261.478 67ZM175.416 115.528H171.336C170.664 115.528 170.328 115.208 170.328 114.568V85.528C170.328 84.856 170.664 84.52 171.336 84.52H175.416C176.088 84.52 176.424 84.856 176.424 85.528V87.112H176.616C176.968 86.248 177.592 85.608 178.488 85.192C179.384 84.744 180.328 84.52 181.32 84.52H183.288C185.752 84.52 187.608 85.192 188.856 86.536C190.136 87.88 190.776 89.816 190.776 92.344V101.176C190.776 103.704 190.136 105.64 188.856 106.984C187.608 108.328 185.752 109 183.288 109H181.32C180.328 109 179.384 108.792 178.488 108.376C177.592 107.928 176.968 107.272 176.616 106.408H176.424V114.568C176.424 115.208 176.088 115.528 175.416 115.528ZM179.736 103.72H181.848C182.872 103.72 183.592 103.512 184.008 103.096C184.456 102.648 184.68 101.912 184.68 100.888V92.632C184.68 91.608 184.456 90.888 184.008 90.472C183.592 90.024 182.872 89.8 181.848 89.8H179.736C177.528 89.8 176.424 91.016 176.424 93.448V100.072C176.424 102.504 177.528 103.72 179.736 103.72ZM204.185 109H203.033C200.505 109 198.553 108.328 197.177 106.984C195.801 105.64 195.113 103.704 195.113 101.176V92.344C195.113 89.816 195.801 87.88 197.177 86.536C198.553 85.192 200.505 84.52 203.033 84.52H214.121C214.825 84.52 215.177 84.856 215.177 85.528V107.992C215.177 108.664 214.825 109 214.121 109H210.089C209.417 109 209.081 108.664 209.081 107.992V106.408H208.889C208.537 107.272 207.913 107.928 207.017 108.376C206.121 108.792 205.177 109 204.185 109ZM209.081 100.072V90.328C209.081 89.976 208.889 89.8 208.505 89.8H203.993C202.969 89.8 202.249 90.024 201.833 90.472C201.417 90.888 201.209 91.608 201.209 92.632V100.888C201.209 101.912 201.417 102.648 201.833 103.096C202.249 103.512 202.969 103.72 203.993 103.72H205.769C207.977 103.72 209.081 102.504 209.081 100.072ZM236.037 104.728V108.04C236.037 108.392 235.957 108.648 235.797 108.808C235.669 108.936 235.413 109 235.029 109H227.877C225.349 109 223.397 108.328 222.021 106.984C220.645 105.64 219.957 103.704 219.957 101.176V92.344C219.957 89.816 220.645 87.88 222.021 86.536C223.397 85.192 225.349 84.52 227.877 84.52H235.029C235.701 84.52 236.037 84.856 236.037 85.528V88.84C236.037 89.192 235.957 89.448 235.797 89.608C235.669 89.736 235.413 89.8 235.029 89.8H228.837C227.845 89.8 227.125 90.024 226.677 90.472C226.261 90.888 226.053 91.608 226.053 92.632V100.888C226.053 101.912 226.261 102.648 226.677 103.096C227.125 103.512 227.845 103.72 228.837 103.72H235.029C235.701 103.72 236.037 104.056 236.037 104.728ZM254.187 84.52H258.843C259.227 84.52 259.483 84.632 259.611 84.856C259.739 85.08 259.691 85.368 259.467 85.72L253.083 96.232V96.424L259.755 107.8C259.947 108.12 259.963 108.408 259.803 108.664C259.643 108.888 259.355 109 258.939 109H254.811C254.267 109 253.867 108.936 253.611 108.808C253.387 108.68 253.147 108.408 252.891 107.992L246.795 97.288C246.507 96.776 246.507 96.248 246.795 95.704L252.555 85.48C252.907 84.84 253.451 84.52 254.187 84.52ZM245.259 109H241.179C240.507 109 240.171 108.664 240.171 107.992V76.264C240.171 75.592 240.507 75.256 241.179 75.256H245.259C245.931 75.256 246.267 75.592 246.267 76.264V107.992C246.267 108.664 245.931 109 245.259 109ZM272.076 109H262.956C262.316 109 261.996 108.664 261.996 107.992V104.92C261.996 104.568 262.06 104.328 262.188 104.2C262.316 104.04 262.572 103.96 262.956 103.96H270.972C272.54 103.96 273.324 103.48 273.324 102.52V102.28C273.324 101.512 272.668 100.776 271.356 100.072L266.604 97.432C264.972 96.6 263.772 95.704 263.004 94.744C262.236 93.784 261.852 92.552 261.852 91.048C261.852 88.808 262.444 87.16 263.628 86.104C264.812 85.048 266.668 84.52 269.196 84.52H277.212C277.852 84.52 278.172 84.856 278.172 85.528V88.648C278.172 89 278.108 89.256 277.98 89.416C277.852 89.544 277.596 89.608 277.212 89.608H270.54C268.972 89.608 268.188 90.008 268.188 90.808V91.048C268.188 91.752 268.876 92.472 270.252 93.208L275.1 96.088C276.764 96.984 277.932 97.912 278.604 98.872C279.276 99.8 279.612 101.032 279.612 102.568C279.612 106.856 277.1 109 272.076 109Z" fill="white"/>
<path d="M82.24 104.728V108.04C82.24 108.392 82.16 108.648 82 108.808C81.872 108.936 81.616 109 81.232 109H74.08C71.552 109 69.6 108.328 68.224 106.984C66.848 105.64 66.16 103.704 66.16 101.176V92.344C66.16 89.816 66.848 87.88 68.224 86.536C69.6 85.192 71.552 84.52 74.08 84.52H81.232C81.904 84.52 82.24 84.856 82.24 85.528V88.84C82.24 89.192 82.16 89.448 82 89.608C81.872 89.736 81.616 89.8 81.232 89.8H75.04C74.048 89.8 73.328 90.024 72.88 90.472C72.464 90.888 72.256 91.608 72.256 92.632V100.888C72.256 101.912 72.464 102.648 72.88 103.096C73.328 103.512 74.048 103.72 75.04 103.72H81.232C81.904 103.72 82.24 104.056 82.24 104.728ZM98.0864 109H93.8144C91.2864 109 89.3344 108.328 87.9584 106.984C86.5824 105.64 85.8944 103.704 85.8944 101.176V92.344C85.8944 89.816 86.5824 87.88 87.9584 86.536C89.3344 85.192 91.2864 84.52 93.8144 84.52H98.0864C100.582 84.52 102.518 85.208 103.894 86.584C105.302 87.928 106.006 89.848 106.006 92.344V101.176C106.006 103.672 105.302 105.608 103.894 106.984C102.518 108.328 100.582 109 98.0864 109ZM94.7264 103.768H97.1744C98.1984 103.768 98.9184 103.56 99.3344 103.144C99.7824 102.728 100.006 102.008 100.006 100.984V92.536C100.006 91.512 99.7824 90.792 99.3344 90.376C98.9184 89.96 98.1984 89.752 97.1744 89.752H94.7264C93.7024 89.752 92.9824 89.96 92.5664 90.376C92.1504 90.792 91.9424 91.512 91.9424 92.536V100.984C91.9424 102.008 92.1504 102.728 92.5664 103.144C92.9824 103.56 93.7024 103.768 94.7264 103.768ZM119.772 109H117.804C115.34 109 113.468 108.328 112.188 106.984C110.94 105.64 110.316 103.704 110.316 101.176V92.344C110.316 89.816 110.94 87.88 112.188 86.536C113.468 85.192 115.34 84.52 117.804 84.52H119.772C120.764 84.52 121.708 84.744 122.604 85.192C123.5 85.608 124.124 86.248 124.476 87.112H124.668V76.264C124.668 75.592 125.004 75.256 125.676 75.256H129.756C130.428 75.256 130.764 75.592 130.764 76.264V107.992C130.764 108.664 130.428 109 129.756 109H125.676C125.004 109 124.668 108.664 124.668 107.992V106.408H124.476C124.124 107.272 123.5 107.928 122.604 108.376C121.708 108.792 120.764 109 119.772 109ZM124.668 100.072V93.448C124.668 91.016 123.564 89.8 121.356 89.8H119.196C118.172 89.8 117.452 90.024 117.036 90.472C116.62 90.888 116.412 91.608 116.412 92.632V100.888C116.412 101.912 116.62 102.648 117.036 103.096C117.452 103.512 118.172 103.72 119.196 103.72H121.356C123.564 103.72 124.668 102.504 124.668 100.072ZM154.11 109H143.502C140.974 109 139.022 108.328 137.646 106.984C136.27 105.64 135.582 103.704 135.582 101.176V92.344C135.582 89.816 136.27 87.88 137.646 86.536C139.022 85.192 140.974 84.52 143.502 84.52H147.294C149.822 84.52 151.774 85.192 153.15 86.536C154.526 87.88 155.214 89.816 155.214 92.344V98.44C155.214 99.112 154.878 99.448 154.206 99.448H142.158C141.774 99.448 141.582 99.624 141.582 99.976V101.032C141.582 102.024 141.79 102.744 142.206 103.192C142.654 103.608 143.39 103.816 144.414 103.816H154.11C154.782 103.816 155.118 104.168 155.118 104.872V108.04C155.118 108.392 155.038 108.648 154.878 108.808C154.75 108.936 154.494 109 154.11 109ZM142.158 95.368H148.686C149.038 95.368 149.214 95.192 149.214 94.84V92.536C149.214 91.512 149.006 90.792 148.59 90.376C148.174 89.96 147.454 89.752 146.43 89.752H144.414C143.39 89.752 142.67 89.96 142.254 90.376C141.838 90.792 141.63 91.512 141.63 92.536V94.84C141.63 95.192 141.806 95.368 142.158 95.368Z" fill="#26FF00"/>
<path d="M356.512 88H355.216C354.96 88 354.784 87.856 354.688 87.568L347.728 57.568C347.664 57.28 347.792 57.136 348.112 57.136H348.784C349.008 57.136 349.168 57.28 349.264 57.568L355.744 86.176H355.936L363.952 57.568C364.048 57.28 364.224 57.136 364.48 57.136H365.392C365.648 57.136 365.824 57.28 365.92 57.568L373.984 86.176H374.176L380.656 57.568C380.72 57.28 380.896 57.136 381.184 57.136H381.904C382.192 57.136 382.288 57.28 382.192 57.568L375.232 87.568C375.168 87.856 375.008 88 374.752 88H373.456C373.2 88 373.024 87.856 372.928 87.568L365.056 59.248H364.864L356.992 87.568C356.896 87.856 356.736 88 356.512 88ZM403.554 88H393.714C391.762 88 390.194 87.408 389.01 86.224C387.858 85.04 387.282 83.456 387.282 81.472V70.048C387.282 68.064 387.858 66.48 389.01 65.296C390.194 64.112 391.762 63.52 393.714 63.52H397.938C399.89 63.52 401.442 64.112 402.594 65.296C403.778 66.48 404.37 68.064 404.37 70.048V76.144C404.37 76.464 404.226 76.624 403.938 76.624H389.154C388.866 76.624 388.722 76.752 388.722 77.008V81.424C388.722 83.056 389.154 84.336 390.018 85.264C390.882 86.192 392.114 86.656 393.714 86.656H403.554C403.842 86.656 403.986 86.784 403.986 87.04V87.616C403.986 87.872 403.842 88 403.554 88ZM389.154 75.28H402.498C402.786 75.28 402.93 75.152 402.93 74.896V70.096C402.93 68.464 402.498 67.184 401.634 66.256C400.77 65.328 399.538 64.864 397.938 64.864H393.714C392.114 64.864 390.882 65.328 390.018 66.256C389.154 67.184 388.722 68.464 388.722 70.096V74.896C388.722 75.152 388.866 75.28 389.154 75.28ZM413.212 86.656H421.612C423.212 86.656 424.444 86.192 425.308 85.264C426.172 84.336 426.604 83.056 426.604 81.424V69.616C426.604 67.984 426.172 66.704 425.308 65.776C424.444 64.848 423.212 64.384 421.612 64.384H418.156C416.556 64.384 415.26 64.816 414.268 65.68C413.276 66.544 412.78 67.776 412.78 69.376V86.272C412.78 86.528 412.924 86.656 413.212 86.656ZM411.34 87.568V54.688C411.34 54.4 411.468 54.256 411.724 54.256H412.396C412.652 54.256 412.78 54.4 412.78 54.688V65.536H412.972C413.868 63.872 415.564 63.04 418.06 63.04H421.612C423.564 63.04 425.116 63.632 426.268 64.816C427.452 66 428.044 67.584 428.044 69.568V81.472C428.044 83.456 427.452 85.04 426.268 86.224C425.116 87.408 423.564 88 421.612 88H411.724C411.468 88 411.34 87.856 411.34 87.568ZM447.307 88H446.635C446.347 88 446.251 87.856 446.347 87.568L456.427 57.568C456.523 57.28 456.683 57.136 456.907 57.136H458.059C458.283 57.136 458.443 57.28 458.539 57.568L468.619 87.568C468.715 87.856 468.619 88 468.331 88H467.611C467.387 88 467.227 87.856 467.131 87.568L464.203 79.216H450.763L447.835 87.568C447.707 87.856 447.531 88 447.307 88ZM457.387 58.96L451.291 77.776H463.675L457.579 58.96H457.387ZM475.021 95.344H474.349C474.093 95.344 473.965 95.2 473.965 94.912V63.952C473.965 63.664 474.093 63.52 474.349 63.52H475.021C475.277 63.52 475.405 63.664 475.405 63.952V66.016H475.597C476.493 64.352 478.189 63.52 480.685 63.52H484.237C486.189 63.52 487.741 64.112 488.893 65.296C490.077 66.48 490.669 68.064 490.669 70.048V81.472C490.669 83.456 490.077 85.04 488.893 86.224C487.741 87.408 486.189 88 484.237 88H480.685C478.189 88 476.493 87.168 475.597 85.504H475.405V94.912C475.405 95.2 475.277 95.344 475.021 95.344ZM480.781 86.656H484.237C485.837 86.656 487.069 86.192 487.933 85.264C488.797 84.336 489.229 83.056 489.229 81.424V70.096C489.229 68.464 488.797 67.184 487.933 66.256C487.069 65.328 485.837 64.864 484.237 64.864H480.781C479.181 64.864 477.885 65.296 476.893 66.16C475.901 67.024 475.405 68.256 475.405 69.856V81.664C475.405 83.264 475.901 84.496 476.893 85.36C477.885 86.224 479.181 86.656 480.781 86.656ZM498.927 95.344H498.255C497.999 95.344 497.871 95.2 497.871 94.912V63.952C497.871 63.664 497.999 63.52 498.255 63.52H498.927C499.183 63.52 499.311 63.664 499.311 63.952V66.016H499.503C500.399 64.352 502.095 63.52 504.591 63.52H508.143C510.095 63.52 511.647 64.112 512.799 65.296C513.983 66.48 514.575 68.064 514.575 70.048V81.472C514.575 83.456 513.983 85.04 512.799 86.224C511.647 87.408 510.095 88 508.143 88H504.591C502.095 88 500.399 87.168 499.503 85.504H499.311V94.912C499.311 95.2 499.183 95.344 498.927 95.344ZM504.687 86.656H508.143C509.743 86.656 510.975 86.192 511.839 85.264C512.703 84.336 513.135 83.056 513.135 81.424V70.096C513.135 68.464 512.703 67.184 511.839 66.256C510.975 65.328 509.743 64.864 508.143 64.864H504.687C503.087 64.864 501.791 65.296 500.799 66.16C499.807 67.024 499.311 68.256 499.311 69.856V81.664C499.311 83.264 499.807 84.496 500.799 85.36C501.791 86.224 503.087 86.656 504.687 86.656ZM537.583 86.656H547.471C549.071 86.656 550.303 86.224 551.167 85.36C552.031 84.464 552.463 83.2 552.463 81.568V78.16C552.463 74.768 550.639 73.072 546.991 73.072H537.583C537.295 73.072 537.151 73.2 537.151 73.456V86.272C537.151 86.528 537.295 86.656 537.583 86.656ZM537.583 71.728H546.991C548.623 71.728 549.887 71.296 550.783 70.432C551.711 69.536 552.175 68.272 552.175 66.64V63.568C552.175 61.936 551.743 60.688 550.879 59.824C550.015 58.928 548.783 58.48 547.183 58.48H537.583C537.295 58.48 537.151 58.608 537.151 58.864V71.344C537.151 71.6 537.295 71.728 537.583 71.728ZM535.711 87.568V57.568C535.711 57.28 535.839 57.136 536.095 57.136H547.183C549.135 57.136 550.687 57.712 551.839 58.864C553.023 59.984 553.615 61.536 553.615 63.52V66.688C553.615 69.664 552.207 71.568 549.391 72.4C550.543 72.464 551.583 73.024 552.511 74.08C553.439 75.136 553.903 76.48 553.903 78.112V81.616C553.903 83.6 553.311 85.168 552.127 86.32C550.975 87.44 549.423 88 547.471 88H536.095C535.839 88 535.711 87.856 535.711 87.568ZM570.844 88H567.292C565.34 88 563.772 87.408 562.588 86.224C561.436 85.04 560.86 83.456 560.86 81.472V70.048C560.86 68.064 561.436 66.48 562.588 65.296C563.772 64.112 565.34 63.52 567.292 63.52H577.18C577.436 63.52 577.564 63.664 577.564 63.952V87.568C577.564 87.856 577.436 88 577.18 88H576.508C576.252 88 576.124 87.856 576.124 87.568V85.504H575.932C575.036 87.168 573.34 88 570.844 88ZM576.124 81.664V65.248C576.124 64.992 575.98 64.864 575.692 64.864H567.292C565.692 64.864 564.46 65.328 563.596 66.256C562.732 67.184 562.3 68.464 562.3 70.096V81.424C562.3 83.056 562.732 84.336 563.596 85.264C564.46 86.192 565.692 86.656 567.292 86.656H570.748C572.348 86.656 573.644 86.224 574.636 85.36C575.628 84.496 576.124 83.264 576.124 81.664ZM592.83 88H584.67C584.382 88 584.238 87.872 584.238 87.616V87.04C584.238 86.784 584.382 86.656 584.67 86.656H592.83C596.062 86.656 597.678 85.376 597.678 82.816V81.376C597.678 80.192 597.47 79.232 597.054 78.496C596.638 77.76 595.886 77.2 594.798 76.816L588.462 74.608C586.798 74.032 585.63 73.328 584.958 72.496C584.318 71.632 583.998 70.432 583.998 68.896C583.998 65.312 585.95 63.52 589.854 63.52H597.582C597.87 63.52 598.014 63.648 598.014 63.904V64.48C598.014 64.736 597.87 64.864 597.582 64.864H589.854C588.382 64.864 587.278 65.2 586.542 65.872C585.838 66.544 585.486 67.312 585.486 68.176V69.472C585.486 70.496 585.742 71.296 586.254 71.872C586.798 72.416 587.63 72.88 588.75 73.264L595.038 75.52C596.734 76 597.838 76.784 598.35 77.872C598.862 78.96 599.118 80.48 599.118 82.432C599.118 84.384 598.606 85.808 597.582 86.704C596.558 87.568 594.974 88 592.83 88ZM621.616 88H611.776C609.824 88 608.256 87.408 607.072 86.224C605.92 85.04 605.344 83.456 605.344 81.472V70.048C605.344 68.064 605.92 66.48 607.072 65.296C608.256 64.112 609.824 63.52 611.776 63.52H616C617.952 63.52 619.504 64.112 620.656 65.296C621.84 66.48 622.432 68.064 622.432 70.048V76.144C622.432 76.464 622.288 76.624 622 76.624H607.216C606.928 76.624 606.784 76.752 606.784 77.008V81.424C606.784 83.056 607.216 84.336 608.08 85.264C608.944 86.192 610.176 86.656 611.776 86.656H621.616C621.904 86.656 622.048 86.784 622.048 87.04V87.616C622.048 87.872 621.904 88 621.616 88ZM607.216 75.28H620.56C620.848 75.28 620.992 75.152 620.992 74.896V70.096C620.992 68.464 620.56 67.184 619.696 66.256C618.832 65.328 617.6 64.864 616 64.864H611.776C610.176 64.864 608.944 65.328 608.08 66.256C607.216 67.184 606.784 68.464 606.784 70.096V74.896C606.784 75.152 606.928 75.28 607.216 75.28ZM656.92 57.136H659.08C659.496 57.136 659.704 57.344 659.704 57.76V80.896C659.704 83.136 659.064 84.88 657.784 86.128C656.536 87.376 654.824 88 652.648 88H647.848C645.64 88 643.896 87.376 642.616 86.128C641.368 84.848 640.744 83.104 640.744 80.896V76.768C640.744 76.32 640.968 76.096 641.416 76.096H643.576C644.024 76.096 644.248 76.32 644.248 76.768V80.752C644.248 83.536 645.592 84.928 648.28 84.928H652.216C654.904 84.928 656.248 83.536 656.248 80.752V57.808C656.248 57.36 656.472 57.136 656.92 57.136ZM666.706 80.896V79.36C666.706 78.912 666.93 78.688 667.378 78.688H669.538C669.986 78.688 670.21 78.912 670.21 79.36V80.608C670.21 83.488 671.634 84.928 674.482 84.928H678.706C681.554 84.928 682.978 83.456 682.978 80.512V78.88C682.978 76.576 681.074 75.072 677.266 74.368C675.666 74.08 674.066 73.744 672.466 73.36C670.866 72.976 669.506 72.24 668.386 71.152C667.266 70.032 666.706 68.512 666.706 66.592V64.24C666.706 62.032 667.33 60.304 668.578 59.056C669.858 57.776 671.602 57.136 673.81 57.136H679.138C681.314 57.136 683.042 57.776 684.322 59.056C685.602 60.304 686.242 62.032 686.242 64.24V65.44C686.242 65.92 686.034 66.16 685.618 66.16H683.41C682.994 66.16 682.786 65.92 682.786 65.44V64.576C682.786 61.664 681.362 60.208 678.514 60.208H674.434C671.586 60.208 670.162 61.728 670.162 64.768V66.688C670.162 68.32 671.234 69.44 673.378 70.048C674.338 70.304 675.394 70.544 676.546 70.768C677.698 70.96 678.85 71.232 680.002 71.584C681.186 71.904 682.258 72.32 683.218 72.832C684.178 73.312 684.946 74.064 685.522 75.088C686.13 76.08 686.434 77.296 686.434 78.736V80.896C686.434 83.104 685.794 84.848 684.514 86.128C683.234 87.376 681.506 88 679.33 88H673.81C671.634 88 669.906 87.376 668.626 86.128C667.346 84.848 666.706 83.104 666.706 80.896Z" fill="#26FF00"/>
</svg>
